<svg width="24" height="24" viewBox="0 0 24 24" fill="none" xmlns="http://www.w3.org/2000/svg">
<path d="M11.8812 4.44739C10.7722 5.22735 9.51531 6.11141 8.8419 7.57399C7.67219 10.1255 11.2354 12.9089 11.3877 13.0261C11.4231 13.0534 11.4654 13.067 11.5077 13.067C11.5526 13.067 11.5975 13.0516 11.634 13.0211C11.7047 12.9619 11.7248 12.8614 11.6823 12.7796C11.6694 12.7547 10.3904 10.2704 10.4379 8.48803C10.4548 7.86734 11.3235 7.16316 12.2432 6.41758C13.0856 5.73473 14.0404 4.96075 14.5991 4.05536C15.8255 2.06243 14.4624 0.102774 14.4484 0.0832588C14.3943 0.00724596 14.2944 -0.0203736 14.2089 0.0171607C14.1235 0.0547737 14.0762 0.147154 14.0958 0.238353C14.0985 0.251258 14.3636 1.54718 13.626 2.88228C13.322 3.43396 12.6543 3.90365 11.8812 4.44739Z" fill="black"/>
<path d="M16.5533 5.32578C16.6315 5.26684 16.6545 5.15936 16.6071 5.07359C16.5598 4.98782 16.4566 4.94997 16.365 4.98475C16.1766 5.05635 11.7518 6.76192 11.7518 8.82285C11.7518 10.2434 12.3586 10.9939 12.8017 11.542C12.9755 11.7569 13.1256 11.9425 13.175 12.101C13.3142 12.5577 12.9844 13.3832 12.8458 13.6627C12.8058 13.7431 12.8254 13.8404 12.8934 13.8991C12.9301 13.9308 12.976 13.9469 13.022 13.9469C13.0611 13.9469 13.1003 13.9352 13.1342 13.9116C13.2103 13.8587 14.9936 12.5978 14.6738 11.0788C14.5546 10.5014 14.2709 10.0795 14.0205 9.70723C13.6327 9.13052 13.3525 8.71387 13.7775 7.94437C14.2756 7.04701 16.5306 5.34286 16.5533 5.32578Z" fill="black"/>
<path d="M5.03533 13.9797C4.95947 14.2067 4.99527 14.4321 5.1388 14.6314C5.61848 15.2973 7.31752 15.6641 9.9232 15.6641C9.92336 15.6641 9.92344 15.6641 9.92352 15.6641C10.2766 15.6641 10.6493 15.6571 11.0311 15.6435C15.1971 15.4943 16.7423 14.1965 16.8061 14.1413C16.8755 14.0812 16.8941 13.981 16.8509 13.9C16.8077 13.819 16.7146 13.7783 16.6256 13.8028C15.1584 14.2034 12.4186 14.3456 10.5183 14.3456C8.39193 14.3456 7.30902 14.1924 7.04392 14.0794C7.17997 13.8926 8.01903 13.559 9.05874 13.3545C9.15812 13.335 9.22642 13.2432 9.21658 13.1424C9.20675 13.0416 9.12208 12.9648 9.02081 12.9648C8.41129 12.9648 5.3548 13.0138 5.03533 13.9797Z" fill="black"/>
<path d="M18.9755 12.6431C18.1162 12.6431 17.3014 13.0736 17.2671 13.092C17.1876 13.1346 17.1474 13.2257 17.1692 13.3132C17.191 13.4006 17.2696 13.4621 17.3598 13.4621C17.3781 13.4622 19.1927 13.477 19.3571 14.5138C19.5027 15.4082 17.6401 16.8575 16.9101 17.3405C16.8313 17.3927 16.8007 17.4936 16.8372 17.5807C16.8683 17.6549 16.9406 17.7013 17.0185 17.7013C17.0322 17.7013 17.0459 17.6999 17.0596 17.6969C17.2329 17.6599 21.2974 16.7643 20.8677 14.3977C20.6055 12.9474 19.6939 12.6431 18.9755 12.6431Z" fill="black"/>
<path d="M16.1882 17.051C16.2024 16.9751 16.1708 16.898 16.1077 16.8538L15.1331 16.1711C15.0856 16.1379 15.0256 16.1274 14.9698 16.1422C14.9596 16.1449 13.9405 16.4127 12.4608 16.577C11.8736 16.6429 11.2158 16.6777 10.5585 16.6777C9.07926 16.6777 8.11202 16.5038 7.97117 16.3764C7.95252 16.3406 7.95842 16.3243 7.96173 16.3152C7.9873 16.244 8.12445 16.1594 8.2129 16.126C8.31055 16.0899 8.36319 15.9838 8.33282 15.8842C8.30252 15.7845 8.19984 15.7258 8.09849 15.7502C7.12086 15.9861 6.64283 16.3161 6.67761 16.7308C6.73938 17.466 8.44243 17.8434 9.88219 17.9432C10.0892 17.9574 10.3132 17.9646 10.5476 17.9646C10.5477 17.9646 10.5478 17.9646 10.548 17.9646C12.9421 17.9646 16.0112 17.2135 16.0419 17.2058C16.1168 17.1873 16.1739 17.1268 16.1882 17.051Z" fill="black"/>
<path d="M8.84073 18.6291C8.91454 18.581 8.94727 18.4898 8.92107 18.4058C8.89494 18.3217 8.81633 18.2666 8.72805 18.2677C8.59703 18.2711 7.44606 18.3231 7.36548 19.0559C7.34109 19.2749 7.4038 19.4749 7.55197 19.6504C7.96524 20.1402 9.08073 20.4313 10.9617 20.5404C11.1842 20.5537 11.4102 20.5604 11.6336 20.5604C14.0249 20.5604 15.6355 19.8117 15.7029 19.7798C15.7683 19.7489 15.8114 19.6847 15.8153 19.6124C15.8191 19.5403 15.7831 19.4717 15.7214 19.434L14.4898 18.6822C14.447 18.6561 14.3959 18.6475 14.3471 18.6575C14.3393 18.6591 13.5573 18.8213 12.3771 18.9816C12.1538 19.0119 11.8742 19.0273 11.546 19.0273C10.3671 19.0273 9.05586 18.8347 8.80437 18.7086C8.80075 18.6849 8.8054 18.655 8.84073 18.6291Z" fill="black"/>
<path d="M10.5191 22.821C15.9966 22.8164 18.9365 21.8423 19.5028 21.2293C19.7033 21.0124 19.725 20.8071 19.7079 20.673C19.6658 20.343 19.3653 20.141 19.3311 20.119C19.2489 20.0662 19.1386 20.08 19.0744 20.154C19.0105 20.228 19.009 20.336 19.0732 20.4099C19.1077 20.4544 19.1277 20.5288 19.0267 20.6299C18.8003 20.8413 16.5168 21.4832 12.7147 21.6759C12.1939 21.7031 11.6476 21.7168 11.0911 21.7169C7.68692 21.7169 5.19557 21.2506 4.86854 20.9788C4.99468 20.7978 5.87583 20.5084 6.81301 20.3448C6.91861 20.3264 6.98998 20.2268 6.97361 20.1209C6.95724 20.015 6.85959 19.9421 6.75289 19.956C6.72645 19.9595 6.63683 19.965 6.53288 19.9713C4.98658 20.0658 3.19964 20.2762 3.1064 21.0729C3.07807 21.3157 3.15023 21.536 3.3209 21.7279C3.7385 22.1971 4.93889 22.8209 10.5189 22.8209C10.5191 22.821 10.5191 22.821 10.5191 22.821Z" fill="black"/>
<path d="M20.5787 21.402C20.5013 21.3662 20.4098 21.3843 20.352 21.4466C20.3439 21.4553 19.5204 22.3165 17.0443 22.8221C16.0964 23.0121 14.317 23.1084 11.7556 23.1084C9.18945 23.1084 6.74768 23.0074 6.72329 23.0064C6.62131 23.0014 6.53404 23.0756 6.52019 23.176C6.50627 23.2764 6.57095 23.3709 6.66947 23.3943C6.69488 23.4004 9.2539 23.9999 12.7528 23.9999C14.431 23.9999 16.064 23.8636 17.6067 23.5946C20.4829 23.0904 20.6843 21.6641 20.6915 21.6037C20.7015 21.5192 20.656 21.4378 20.5787 21.402Z" fill="black"/>
</svg>
